<svg xmlns="http://www.w3.org/2000/svg" version="1.1" xmlns:xlink="http://www.w3.org/1999/xlink" viewBox="0 0 2.4103072265625003 3.0081283852511134"><g transform="matrix(0.8571428571428571,0,0,0.8571428571428571,0.34432960379464295,1.7082401272644268)"><rect width="3.4098462563448635" height="3.4098462563448635" x="-0.7006284504380567" y="-1.9431283852511134" fill="#ffffff"></rect><g clip-path="url(#SvgjsClipPath8687)"><g clip-path="url(#SvgjsClipPath8682f6309a96-9edc-4424-adc9-91609a5c5edd)"><path d=" M 1.871748756945615 -0.29172209078713407 L 1.7508037784756165 -0.5869726929900454 C 1.7420811236545264 -0.608293359412464 1.7213298975534426 -0.6222209064695062 1.698293936632674 -0.6222155885020008 L 0.31025178789146235 -0.6222155885020008 C 0.287211854233118 -0.6222253375511704 0.2664551965256434 -0.6082970382670891 0.257731038312365 -0.5869726929900454 L 0.1368187830508273 -0.29172209078713407 C 0.13299849823086526 -0.282390592471192 0.1340775625208405 -0.27176921767713025 0.13969646498000202 -0.2633966809002337 C 0.14531536743916418 -0.25502414412333696 0.15473571625909463 -0.25000069805826763 0.16481894175685974 -0.2500000000000002 L 1.8437376905034284 -0.2500000000000002 C 1.8538228474541671 -0.24999706242567954 1.863246547963649 -0.25501902387236997 1.868868036149109 -0.2633921517187061 C 1.8744895243345714 -0.27176527956504204 1.8755697741019435 -0.28238880480408235 1.871748756945615 -0.29172209078713385 Z M 1.1452935291225796 -0.3033715529990708 L 0.8632740108738619 -0.3033715529990708 C 0.8538589581097399 -0.3033715525088456 0.845159090378553 -0.30839442308096876 0.8404515638525341 -0.3165480978695563 C 0.8357440373265164 -0.32470177265814404 0.8357440373220039 -0.3347475144089773 0.8404515638406995 -0.34290118920179324 C 0.8451590903593941 -0.35105486399460917 0.8538589580860696 -0.3560777345745467 0.8632740108501917 -0.3560777340927781 L 1.1452826213864273 -0.3560777340927781 C 1.1598370308751245 -0.3560777333349556 1.1716357105676587 -0.34427905302278705 1.1716357105611215 -0.32972464353408926 C 1.1716357105545845 -0.31517023404539146 1.159837030851453 -0.3033715537438204 1.1452826213627558 -0.3033715529990708 Z" fill="#173054" transform="matrix(1,0,0,1,0,0)" fill-rule="nonzero"></path></g><g clip-path="url(#SvgjsClipPath8682f6309a96-9edc-4424-adc9-91609a5c5edd)"><path d=" M 1.624066792108113 -1.4782219986201435 C 1.6537994572668109 -1.4785797639236042 1.6782044208789786 -1.4547898053944621 1.6786054728756077 -1.4250576926079892 L 1.6786054728756077 -0.793303430069633 C 1.6782044208789786 -0.76357131728316 1.6537994572668109 -0.7397813587540181 1.624066792108113 -0.7401391240574787 L 1.2466591211970468 -0.7401391240574787 L 1.0783200291400965 -0.9084564006421222 C 1.0698152050480556 -0.9170102553990673 1.0665911545157543 -0.9294893746651022 1.0698883490934412 -0.9410923472133912 C 1.0786908921693157 -0.9724739041270078 1.0754185713232642 -1.0040736157636947 1.058238886881504 -1.0212533002054553 C 1.0348527005684027 -1.0446394865185573 0.97252589618731 -1.0720833506807608 0.9420278659021258 -1.0687346756816367 L 1.0094703985392106 -1.0012921430445523 L 0.9805321745239769 -0.9376236871165784 L 0.9168637185960034 -0.9086854631013456 L 0.8494211859589186 -0.97612799573843 C 0.8460725109597944 -0.9455863345086327 0.8735163751219982 -0.8833031610721533 0.8969025614350993 -0.8599169747590515 C 0.9140822458768608 -0.8427372903172905 0.9456819575135474 -0.8394649694712407 0.9770635144271642 -0.8482675125471144 C 0.9886664869754533 -0.8515647071248017 1.001145606241488 -0.8483406565925007 1.0096994609984327 -0.8398358325004598 L 1.172584684978634 -0.6769506085202589 L 1.6645235855014398 -0.6769506085202589 C 1.6989113483719656 -0.6769566319505266 1.72678494399315 -0.7048351108225214 1.7267849434656108 -0.7392228742205847 L 1.7267849434656108 -1.4791382484570375 C 1.7267849434656108 -1.5135260128104113 1.6989113474167472 -1.5414044912548008 1.6645235845461297 -1.5414105141575307 L 0.8972734244643183 -1.5414105141575307 L 0.9604619400015378 -1.4782219986201435 Z" fill="#225777" transform="matrix(1,0,0,1,0,0)" fill-rule="nonzero"></path></g><g clip-path="url(#SvgjsClipPath8682f6309a96-9edc-4424-adc9-91609a5c5edd)"><path d=" M 0.34406576996730864 -0.6769506085202589 L 1.1112832077959696 -0.6769506085202589 L 1.0480946922587489 -0.7401391240574787 L 0.38451165562448336 -0.7401391240574787 C 0.3547789904657869 -0.7397813587540182 0.33037402685361794 -0.76357131728316 0.3299729748569883 -0.793303430069633 L 0.3299729748569883 -1.4250576926079892 C 0.33037402685361794 -1.4547898053944621 0.3547789904657869 -1.4785797639236042 0.38451165562448336 -1.4782219986201435 L 0.7619193265355496 -1.4782219986201435 L 0.9302256953840392 -1.3099047220355 C 0.9387367652122175 -1.301354425286331 0.9419617575666148 -1.2888716605717723 0.9386573754306932 -1.277268775464231 C 0.9298548323548201 -1.2458872185506142 0.9331271532008703 -1.2142875069139276 0.9503068376426306 -1.1971078224721667 C 0.9736930239557329 -1.1737216361590648 1.0360198283368258 -1.1462777719968613 1.0665178586220088 -1.1496264469959854 L 0.999075325984925 -1.2170689796330698 L 1.0280135500001575 -1.2807374355610437 L 1.091682005928131 -1.3096756595762764 L 1.1591245385652158 -1.2422331269391922 C 1.16247321356434 -1.2727747881689893 1.1350293494021375 -1.3350579616054687 1.111643163089035 -1.3584441479185707 C 1.0944634786472736 -1.3756238323603316 1.0628746747467406 -1.3788961532063813 1.03148221009697 -1.3700936101305077 C 1.0198792375486823 -1.3667964155528205 1.0074001182826464 -1.3700204660851216 0.9988462635257017 -1.3785252901771623 L 0.8360046704901147 -1.5414105141573633 L 0.34406576996730864 -1.5414105141573633 C 0.30967800709678267 -1.5414044907270958 0.281804411475597 -1.513526011855101 0.28180441200313555 -1.4791382484570375 L 0.28180441200313555 -0.7392446896928918 C 0.2817986252645695 -0.7227271682617938 0.28835538240965786 -0.7068840220211676 0.3000319656572369 -0.6952013018167374 C 0.3117085489048147 -0.6835185816123073 0.3275482477757947 -0.6769535007492709 0.3440657699673234 -0.6769506085202589 Z" fill="#173054" transform="matrix(1,0,0,1,0,0)" fill-rule="nonzero"></path></g></g><g><path d=" M 1.0170000000000001 -2.220446049250313e-16 L 1.0170000000000001 0.029999999999999805 Q 0.984 0.041999999999999815 0.94725 0.0824999999999998 Q 0.9105 0.12299999999999978 0.879 0.2084999999999998 L 0.5625 1.0649999999999997 Q 0.5505 1.0635 0.537 1.0635 Q 0.5235 1.0635 0.51 1.0635 Q 0.498 1.0635 0.4845 1.0635 Q 0.47100000000000003 1.0635 0.459 1.0649999999999997 L 0.0765 0.12599999999999978 Q 0.0555 0.07199999999999984 0.03 0.05174999999999974 Q 0.0045000000000000005 0.03149999999999986 -0.018000000000000002 0.029999999999999805 L -0.018000000000000002 -2.220446049250313e-16 Q 0.027 0.0014999999999998348 0.08775000000000001 0.0029999999999998916 Q 0.1485 0.0044999999999997264 0.21 0.0044999999999997264 Q 0.279 0.0044999999999997264 0.33975 0.0029999999999998916 Q 0.4005 0.0014999999999998348 0.438 -2.220446049250313e-16 L 0.438 0.029999999999999805 Q 0.3645 0.03299999999999992 0.342 0.054749999999999854 Q 0.3195 0.07649999999999979 0.35100000000000003 0.1559999999999998 L 0.624 0.8504999999999998 L 0.5925 0.8879999999999998 L 0.7995 0.32999999999999985 Q 0.84 0.2174999999999998 0.8415 0.1529999999999998 Q 0.843 0.0884999999999998 0.81 0.05999999999999983 Q 0.777 0.03149999999999986 0.7155 0.029999999999999805 L 0.7155 -2.220446049250313e-16 Q 0.7665000000000001 0.0014999999999998348 0.8115 0.0029999999999998916 Q 0.8565 0.0044999999999997264 0.903 0.0044999999999997264 Q 0.936 0.0044999999999997264 0.96525 0.0029999999999998916 Q 0.9945 0.0014999999999998348 1.0170000000000001 -2.220446049250313e-16 M 2.023544677734375 -2.220446049250313e-16 L 2.023544677734375 0.029999999999999805 Q 1.990544677734375 0.041999999999999815 1.953794677734375 0.0824999999999998 Q 1.917044677734375 0.12299999999999978 1.885544677734375 0.2084999999999998 L 1.569044677734375 1.0649999999999997 Q 1.557044677734375 1.0635 1.543544677734375 1.0635 Q 1.530044677734375 1.0635 1.516544677734375 1.0635 Q 1.504544677734375 1.0635 1.4910446777343749 1.0635 Q 1.477544677734375 1.0635 1.465544677734375 1.0649999999999997 L 1.083044677734375 0.12599999999999978 Q 1.062044677734375 0.07199999999999984 1.036544677734375 0.05174999999999974 Q 1.011044677734375 0.03149999999999986 0.9885446777343749 0.029999999999999805 L 0.9885446777343749 -2.220446049250313e-16 Q 1.0335446777343749 0.0014999999999998348 1.094294677734375 0.0029999999999998916 Q 1.155044677734375 0.0044999999999997264 1.216544677734375 0.0044999999999997264 Q 1.285544677734375 0.0044999999999997264 1.346294677734375 0.0029999999999998916 Q 1.407044677734375 0.0014999999999998348 1.444544677734375 -2.220446049250313e-16 L 1.444544677734375 0.029999999999999805 Q 1.371044677734375 0.03299999999999992 1.348544677734375 0.054749999999999854 Q 1.3260446777343748 0.07649999999999979 1.357544677734375 0.1559999999999998 L 1.6305446777343748 0.8504999999999998 L 1.599044677734375 0.8879999999999998 L 1.8060446777343748 0.32999999999999985 Q 1.846544677734375 0.2174999999999998 1.848044677734375 0.1529999999999998 Q 1.849544677734375 0.0884999999999998 1.816544677734375 0.05999999999999983 Q 1.7835446777343749 0.03149999999999986 1.722044677734375 0.029999999999999805 L 1.722044677734375 -2.220446049250313e-16 Q 1.773044677734375 0.0014999999999998348 1.8180446777343748 0.0029999999999998916 Q 1.863044677734375 0.0044999999999997264 1.909544677734375 0.0044999999999997264 Q 1.9425446777343751 0.0044999999999997264 1.971794677734375 0.0029999999999998916 Q 2.001044677734375 0.0014999999999998348 2.023544677734375 -2.220446049250313e-16" fill="#173054" fill-rule="nonzero"></path></g><g></g></g><defs><clipPath id="SvgjsClipPath8687"><path d=" M 0.13454997393090018 -1.5414105141573633 h 1.7394894076069498 v 1.2914105141573633 h -1.7394894076069498 Z"></path></clipPath><clipPath id="SvgjsClipPath8682f6309a96-9edc-4424-adc9-91609a5c5edd"><path d=" M 0.13454997393090018 -1.5414105141573633 L 1.87403938153785 -1.5414105141573633 L 1.87403938153785 -0.25 L 0.13454997393090018 -0.25 Z"></path></clipPath></defs></svg>